<?xml version="1.0" encoding="UTF-8" standalone="no"?>
<!-- Created with Inkscape (http://www.inkscape.org/) -->

<svg
   xmlns:dc="http://purl.org/dc/elements/1.1/"
   xmlns:cc="http://creativecommons.org/ns#"
   xmlns:rdf="http://www.w3.org/1999/02/22-rdf-syntax-ns#"
   xmlns:svg="http://www.w3.org/2000/svg"
   xmlns="http://www.w3.org/2000/svg"
   xmlns:sodipodi="http://sodipodi.sourceforge.net/DTD/sodipodi-0.dtd"
   xmlns:inkscape="http://www.inkscape.org/namespaces/inkscape"
   width="210mm"
   height="297mm"
   viewBox="0 0 744.09448819 1052.3622047"
   id="svg2"
   version="1.1"
   inkscape:version="0.91 r13725"
   sodipodi:docname="CaseEmboss.svg">
  <defs
     id="defs4" />
  <sodipodi:namedview
     id="base"
     pagecolor="#ffffff"
     bordercolor="#666666"
     borderopacity="1.0"
     inkscape:pageopacity="0.0"
     inkscape:pageshadow="2"
     inkscape:zoom="0.35"
     inkscape:cx="-45"
     inkscape:cy="520"
     inkscape:document-units="px"
     inkscape:current-layer="g4182"
     showgrid="false"
     inkscape:window-width="1280"
     inkscape:window-height="751"
     inkscape:window-x="0"
     inkscape:window-y="1"
     inkscape:window-maximized="1" />
  <metadata
     id="metadata7">
    <rdf:RDF>
      <cc:Work
         rdf:about="">
        <dc:format>image/svg+xml</dc:format>
        <dc:type
           rdf:resource="http://purl.org/dc/dcmitype/StillImage" />
        <dc:title></dc:title>
      </cc:Work>
    </rdf:RDF>
  </metadata>
  <g
     inkscape:label="Layer 1"
     inkscape:groupmode="layer"
     id="layer1">
    <g
       id="g4182"
       transform="translate(-754.28571,-151.42857)">
      <path
         style="fill:#000000"
         d="m 856.69123,1079.8481 c -17.25689,-3.7492 -28.78647,-15.448 -33.98705,-34.4859 -1.59368,-5.834 -1.77561,-11.7766 -1.77561,-57.99999 l 0,-51.5 11.85817,-0.28267 c 7.68037,-0.18308 12.33335,0.11169 13.20692,0.83669 1.09154,0.9059 1.40464,10.68551 1.64183,51.28267 0.29168,49.924 0.30405,50.1871 2.59193,55.1509 4.6612,10.1128 10.27101,13.4562 22.63543,13.4905 12.84489,0.036 18.50033,-3.851 23.25062,-15.9781 1.57216,-4.0136 1.81957,-9.9045 2.28889,-54.49999 l 0.52621,-50 11.35687,-0.28375 c 7.76213,-0.19394 11.81597,0.0973 12.80729,0.91999 1.24127,1.03017 1.39892,8.56954 1.09328,52.28375 -0.31287,44.7476 -0.57169,51.8238 -2.08774,57.08 -5.41714,18.7813 -16.45082,29.8795 -33.76277,33.9602 -7.82478,1.8445 -23.21537,1.8569 -31.64427,0.026 z m 187.39327,-0.4606 c -10.0792,-3.2201 -21.6559,-12.4576 -21.6559,-17.28 0,-1.6467 14.4483,-13.7572 16.3789,-13.7288 0.6166,0.01 3.0123,1.9753 5.3239,4.3694 5.2261,5.4128 10.6509,7.0642 18.3864,5.5972 9.1309,-1.7316 11.6002,-6.5423 5.8442,-11.3856 -2.8246,-2.3768 -6.703,-3.7882 -22.0647,-8.0295 -7.5408,-2.0821 -14.7126,-7.1906 -18.3687,-13.0842 -2.6863,-4.3303 -3,-5.6802 -3,-12.9099 0,-7.0512 0.3563,-8.6802 2.8134,-12.8602 5.8912,-10.02222 16.599,-15.15192 31.7076,-15.18981 8.7601,-0.022 10.0526,0.23779 16.1717,3.25023 6.9964,3.44434 16.8073,12.84798 16.8073,16.10958 0,1.401 -7.0887,7.3103 -13.6672,11.3934 -0.7991,0.496 -3.2376,-1.0212 -6.7419,-4.1948 -6.7234,-6.0887 -11.8831,-7.9105 -17.5746,-6.2053 -4.4268,1.3263 -6.297,3.8645 -5.828,7.9095 0.4114,3.5476 5.6435,6.4043 17.5807,9.5989 5.0384,1.3484 11.4755,3.7114 14.3047,5.2512 16.7983,9.1428 19.8005,29.5438 6.261,42.546 -10.0288,9.6307 -28.3383,13.4244 -42.6788,8.8427 z m 153.5204,0.9678 c -17.024,-3.5987 -29.2581,-17.284 -32.6954,-36.5739 -1.7938,-10.0667 -1.804,-16.2309 -0.041,-24.5503 3.7645,-17.7607 16.796,-30.75659 34.0597,-33.96667 11.1311,-2.06977 23.0746,0.64544 28.4243,6.46194 1.3334,1.44971 2.79,2.63584 3.2369,2.63584 0.4469,0 0.931,-15.4125 1.0757,-34.25 l 0.2631,-34.25 10.919,-0.28555 c 8.0625,-0.21084 11.1324,0.0508 11.7347,1 0.4486,0.70705 0.8226,34.66591 0.831,75.46414 0.014,66.115 -0.1555,74.3494 -1.5561,75.75 -1.1917,1.1917 -3.7089,1.5714 -10.4181,1.5714 -11.1292,0 -12.0104,-0.338 -12.0104,-4.607 0,-1.8661 -0.2725,-3.393 -0.6056,-3.393 -0.3331,0 -1.9682,1.1465 -3.6336,2.5478 -7.4445,6.2641 -18.7697,8.7315 -29.5845,6.4453 z m 23.3237,-25.3261 c 3.0221,-1.6372 4.7335,-3.6339 7,-8.167 2.6814,-5.3628 2.9957,-6.9557 2.9598,-15 -0.042,-9.4337 -1.7982,-14.7856 -6.14,-18.7118 -5.4107,-4.893 -16.0833,-6.2226 -22.7333,-2.8323 -6.914,3.525 -9.4001,8.9133 -9.5104,20.6126 -0.1301,13.795 4.6555,24.0779 12.2755,26.3769 4.332,1.3069 11.3607,0.3153 16.1484,-2.2784 z m 83.8467,25.2383 c -13.1174,-2.1915 -22.4661,-8.4264 -26.6135,-17.749 -2.9722,-6.6809 -2.9187,-17.9305 0.1172,-24.6563 5.9884,-13.2671 17.7206,-18.3051 45.1496,-19.388 14.7844,-0.5837 15.4841,-0.7043 15.155,-2.612 -0.486,-2.8173 -1.96,-4.3598 -6.2641,-6.5556 -8.2761,-4.2222 -21.1551,-3.3834 -32.0442,2.0869 -5.2573,2.6411 -5.7548,2.7219 -7.1034,1.1544 -2.5783,-2.997 -9.7433,-14.04712 -9.7433,-15.02658 0,-1.48721 9.2366,-7.04218 15.187,-9.13357 12.7284,-4.47365 28.5885,-5.07035 39.3985,-1.48227 2.703,0.89718 7.5189,3.62964 10.7021,6.07212 l 5.7875,4.44088 5.5933,-4.00523 c 3.0761,-2.20287 8.092,-4.94019 11.1463,-6.08294 16.0821,-6.01707 37.3337,-1.87219 48.7053,9.4994 8.2064,8.20629 14.1557,24.59869 13.2948,36.63149 l -0.3149,4.401 -34.5,0.5 -34.5,0.5 0.1501,3.2747 c 0.18,3.9258 4.1206,9.3834 9.2042,12.7476 9.801,6.486 27.1014,5.0881 37.7739,-3.0523 1.7811,-1.3585 3.8763,-2.47 4.6559,-2.47 2.0358,0 14.7159,9.813 14.7159,11.3885 0,2.087 -10.1692,11.157 -15.5827,13.8984 -15.0853,7.6391 -33.3219,8.5694 -46.8115,2.388 -2.8082,-1.2868 -7.4501,-4.7355 -10.3155,-7.6637 l -5.2099,-5.324 -4.7901,5.099 c -5.9094,6.2904 -13.1859,9.7256 -23.6126,11.1472 -8.8358,1.2048 -11.9785,1.2002 -19.3309,-0.028 z m 25.1821,-24.4306 c 5.2334,-3.25 8.5872,-8.47 8.8249,-13.7357 l 0.1463,-3.239 -13.0921,0.092 c -14.7833,0.1041 -19.8293,1.6349 -22.2577,6.7522 -1.9632,4.1369 0.2463,9.5574 4.8746,11.9587 5.4495,2.8274 15.3644,1.9843 21.504,-1.8284 z m 77.4711,-38.398 c 0,-2.2121 -5.4414,-7.0809 -9.7784,-8.7495 -5.7141,-2.1984 -15.2779,-2.2473 -20.2943,-0.1039 -3.8321,1.6373 -10.9273,7.4034 -10.9273,8.8803 0,0.4994 9.0794,0.8964 20.5,0.8964 11.8643,0 20.5,-0.3889 20.5,-0.9233 z M 951,1077.7908 c -1.38025,-1.3803 -1.57143,-6.8463 -1.57143,-44.9286 0,-38.08224 0.19118,-43.54832 1.57143,-44.92856 1.19173,-1.19174 3.70901,-1.57143 10.41821,-1.57143 11.12917,0 12.01036,0.33801 12.01036,4.60699 0,3.78833 1.81528,4.5197 3.70551,1.49295 0.65264,-1.04504 3.77204,-3.16499 6.932,-4.71102 7.93255,-3.88103 17.62892,-4.00135 24.86252,-0.30849 3.1103,1.58787 5.084,3.28333 5.2224,4.48608 0.1223,1.06342 -1.2592,5.53349 -3.0701,9.93348 -3.6907,8.9673 -2.7703,8.5369 -14.89399,6.9659 -7.02918,-0.9108 -13.45983,1.2022 -17.20524,5.6534 -4.78884,5.6912 -5.5531,10.9837 -5.5531,38.4552 0,22.0671 -0.19728,25.2872 -1.58179,25.8185 -0.86998,0.3339 -5.56284,0.607 -10.42857,0.607 -6.7092,0 -9.22648,-0.3797 -10.41821,-1.5714 z m 167.6786,0.9091 c -0.9742,-0.3931 -1.25,-10.502 -1.25,-45.814 0,-40.39404 0.1716,-45.37556 1.5818,-45.9167 2.9659,-1.13813 19.962,-0.66312 21.2182,0.59301 1.7265,1.72653 1.7265,88.87349 0,90.59999 -1.1878,1.1878 -18.847,1.6284 -21.55,0.5377 z m 6.0652,-111.40849 c -13.1097,-3.92116 -13.6838,-22.56781 -0.8457,-27.4707 12.9658,-4.95171 24.8343,7.66968 18.924,20.12461 -2.8321,5.96816 -11.2495,9.38859 -18.0783,7.34609 z"
         id="path4186"
         inkscape:connector-curvature="0"
         sodipodi:nodetypes="csscssssssscscsssccsscssssssssssssssssssssssssscscscssscssscsssssssssssssssssccsssccccssssssscssssccssssssssssssssssssssssscssssssssssss" />
      <path
         style="fill:#030303"
         d="m 998.15577,908.21983 c -70.51076,-40.59976 -128.89826,-74.3961 -129.75,-75.10298 -1.3855,-1.14986 -1.54862,-17.0082 -1.54862,-150.55717 l 0,-149.27194 128.83098,-74.60562 c 70.85707,-41.03309 129.50607,-74.60563 130.33117,-74.60563 1.3171,0 255.3716,145.63736 258.5911,148.23796 0.9963,0.80477 1.2013,31.6851 1,150.60865 l -0.2533,149.59632 -129,74.74836 c -70.95,41.11159 -129.225,74.75318 -129.5,74.75907 -0.275,0.006 -58.1906,-33.20726 -128.70133,-73.80702 z M 1234.833,875.85447 c 58.0383,-33.61132 107.2116,-62.16709 109.2741,-63.45728 l 3.75,-2.34578 -0.015,-84.23745 c -0.01,-46.33061 -0.4081,-84.85761 -0.8882,-85.61558 -1.034,-1.63258 -3.0965,-0.64082 -3.0965,1.48902 0,2.95649 -4.4515,9.37378 -6.5,9.37024 -1.1,-0.002 -6.275,-1.34342 -11.5,-2.98114 -10.9541,-3.43348 -13.2839,-3.68531 -12.8233,-1.3861 0.2056,1.0261 3.762,2.85612 9.7646,5.02459 5.1927,1.87588 9.6155,3.58495 9.8285,3.79794 0.213,0.21299 -1.5606,1.50304 -3.9412,2.86678 -3.6796,2.10776 -6.1278,2.57957 -16.3286,3.14677 l -12,0.66725 -28,11.84887 c -27.9104,11.81095 -28.0316,11.85085 -37.8914,12.47151 -11.6323,0.73223 -7.3077,-2.25258 -38.6935,26.70558 -25.4262,23.45951 -23.0096,19.98685 -31.5397,45.32273 l -5.3754,15.96593 0,21.08829 0,21.0883 2.9129,4.59317 c 3.088,4.86916 2.6191,4.67318 15.2435,6.37112 4.4664,0.60073 4.6989,0.79552 5.7012,4.77677 1.1716,4.65364 0.092,11.43262 -2.0352,12.78148 -0.7273,0.46111 -4.6974,0.81301 -8.8224,0.78199 -6.4029,-0.0481 -9.3283,-0.7407 -20,-4.73469 l -12.5,-4.67828 -9.7498,-19.20847 -9.7498,-19.20847 -3.0002,-32.58091 c -1.6501,-17.9195 -3.007,-33.35068 -3.0155,-34.29153 -0.04,-4.49944 -1.2876,-4.35833 -16.5484,1.87211 -8.2149,3.35389 -15.502,6.82278 -16.1935,7.70867 -0.8369,1.07216 -1.0909,3.63316 -0.7597,7.65965 0.2737,3.32692 0.7792,15.90794 1.1234,27.95783 l 0.6258,21.90887 14.4701,15.31199 c 12.4222,13.14499 14.9886,15.3935 18.1339,15.88802 2.015,0.31682 5.0137,0.78656 6.6637,1.04385 5.0687,0.7904 5.9037,1.85957 5.9538,7.62336 l 0.046,5.31503 -42.669,0.26067 -42.669,0.26068 -2.081,-2.64553 c -1.7542,-2.23014 -2.081,-4.04419 -2.081,-11.5532 l 0,-8.90766 -12.4127,-32.70748 c -12.6279,-33.27414 -17.6956,-45.22258 -19.987,-47.12428 -1.5436,-1.28105 -5.0956,1.14821 -22.47956,15.37388 -10.88423,8.90681 -12.84163,11.0164 -18.55718,20 l -6.38951,10.04292 -0.71466,14.61208 c -0.45312,9.26446 -0.3558,14.83387 0.26591,15.21811 0.53931,0.33332 4.30926,1.08684 8.37766,1.6745 11.68248,1.68747 11.90921,1.78007 13.46299,5.49878 2.78987,6.67711 3.21845,6.4949 -15.3159,6.51184 -16.24817,0.0149 -19.89822,0.55915 -19.12188,2.85145 0.20453,0.60394 38.39688,22.98622 84.87183,49.7384 103.5484,59.60503 96.2012,55.49308 97.9759,54.83311 0.8117,-0.30185 48.9617,-28.04899 107,-61.6603 z M 935.85715,826.1328 c 0,-0.51903 -5.625,-8.48184 -12.5,-17.69512 l -12.5,-16.75143 0,-18.28765 0,-18.28765 9.65064,-21.74478 9.65064,-21.74477 -1.80211,-37.56211 -1.8021,-37.56211 13.16892,-20.14022 13.16891,-20.14021 -2.45018,-3.61054 c -1.34759,-1.98579 -3.20503,-5.5871 -4.12763,-8.00289 l -1.67745,-4.39235 4.65764,-6.05296 4.65765,-6.05296 8.84433,0.62779 8.84434,0.62778 2.75243,-4.15921 c 1.51384,-2.28756 3.70003,-4.37906 4.8582,-4.64778 1.15818,-0.26871 13.90256,-2.48692 28.32082,-4.92935 l 26.2151,-4.44079 37.7849,6.40685 c 35.8571,6.07995 39.5043,6.51115 71.4824,8.45128 18.5336,1.12445 34.8325,2.47597 36.2197,3.0034 1.3873,0.52742 10.2984,6.01783 19.8026,12.20092 18.9497,12.32807 19.6281,12.56789 36.0552,12.74618 l 7.775,0.0844 0.6226,-3.11267 c 0.4639,-2.31984 1.4887,-3.4746 4.0234,-4.53364 3.1448,-1.31398 3.6419,-1.25483 6.6024,0.78553 1.7609,1.21358 5.0016,4.18821 7.2016,6.6103 l 4,4.40379 15.8026,0.34035 15.8025,0.34035 7.1975,4.30181 c 3.9586,2.366 8.7724,5.84791 10.6974,7.73759 4.0511,3.97671 29.792,21.12657 31.7097,21.12657 1.0314,0 1.2903,-7.7222 1.2903,-38.48581 l 0,-38.48581 -3.75,-2.41897 c -11.746,-7.57689 -216.5257,-124.60941 -218.0375,-124.60941 -1.0009,0 -51.0707,28.52942 -111.2662,63.39872 l -109.44625,63.39872 -0.25379,127.44286 c -0.23978,120.40986 -0.157,127.52788 1.5,128.98328 2.58993,2.27483 26.54673,15.76796 28.00379,15.77252 0.6875,0.002 1.25,-0.42076 1.25,-0.9398 z m 8.28836,-96.06849 c 1.40695,-1.1067 2.83925,-3.29233 3.1829,-4.85695 0.874,-3.97931 49.46028,-42.3852 54.00129,-42.68627 1.6651,-0.1104 4.3774,-0.74882 6.0274,-1.41871 2.5214,-1.02367 5.2261,-0.80263 16.9531,1.38551 11.7574,2.1938 14.3898,3.02195 16.7287,5.26272 3.608,3.45671 7.9532,3.50284 11.5896,0.12303 2.5495,-2.36968 4.6185,-2.7766 31.5147,-6.19812 26.1861,-3.33119 28.9835,-3.52362 30.9725,-2.13048 1.2025,0.8423 3.3351,1.53146 4.739,1.53146 1.8594,0 4.45,1.96867 9.5405,7.25 12.851,13.33285 14.7188,15.58481 14.9922,18.07495 0.5334,4.85965 1.7042,6.87016 4.745,8.14875 4.2873,1.80266 8.5442,0.19932 10.2459,-3.85902 1.153,-2.74973 5.1221,-5.07903 33.8746,-19.87934 29.9177,-15.40008 32.8817,-16.71461 36.4141,-16.14975 3.1679,0.50657 4.3457,0.18463 6.6845,-1.82707 3.6116,-3.10653 3.7708,-7.46625 0.4183,-11.45053 -2.1834,-2.59472 -2.6514,-4.95907 -4.7722,-24.10694 -2.1743,-19.63064 -2.2305,-21.41466 -0.746,-23.68037 2.2979,-3.50699 1.9836,-7.23355 -0.849,-10.06613 -4.4397,-4.43974 -11.5227,-2.37788 -13.0747,3.80607 -0.4405,1.75485 -11.4639,9.03736 -45.7755,30.24091 -40.3513,24.93598 -45.755,27.99203 -50.4175,28.51359 -3.2318,0.3615 -6.0905,1.37272 -7.5,2.65298 -1.9432,1.76495 -6.5,2.61085 -31.0247,5.75921 -26.3647,3.38458 -28.9313,3.56122 -30.9725,2.13154 -2.7618,-1.93441 -6.7021,-2.00255 -9.3308,-0.16133 -1.7361,1.21601 -3.8995,1.05367 -16.6581,-1.25 -12.7016,-2.2934 -15.0466,-3.01535 -17.532,-5.39752 -5.0663,-4.85601 -12.48883,-2.5423 -13.42199,4.18386 -0.24501,1.76607 -4.45326,5.68733 -15.33766,14.29166 -36.45946,28.82194 -35.16362,27.90008 -39.66999,28.22106 -7.43379,0.52949 -10.49218,7.98215 -5.37546,13.09887 2.97962,2.97963 6.41192,3.13403 9.83381,0.44236 z m 209.10699,-29.93415 c -2.9209,-0.6977 -7.5554,-5.10598 -21.3087,-20.26858 -2.3522,-2.59321 -4.1037,-5.23391 -3.8923,-5.86823 0.3791,-1.13735 91.574,-57.91685 93.0216,-57.91685 1.0719,0 1.443,2.29412 3.8492,23.80019 l 2.1595,19.3002 -2.231,4.1998 c -2.1452,4.03813 -3.4936,4.84465 -35.0252,20.94981 -18.0367,9.2125 -32.9458,16.70394 -33.1313,16.64764 -0.1854,-0.0563 -1.7342,-0.43609 -3.4418,-0.84398 z"
         id="path4184"
         inkscape:connector-curvature="0"
         sodipodi:nodetypes="ssscsssscscssscssscssscsscsssscccssscsscccsssssscsssscccsscsssscssssscssssscccccccccsscccccssscssssscsssscccsssscssscsscssssssssssssssssssssssssssssssssssssssssscssss" />
    </g>
  </g>
</svg>
